<?xml version="1.0" standalone="no"?>
<!DOCTYPE svg PUBLIC "-//W3C//DTD SVG 20010904//EN"
 "http://www.w3.org/TR/2001/REC-SVG-20010904/DTD/svg10.dtd">
<svg version="1.0" xmlns="http://www.w3.org/2000/svg"
 width="208.000000pt" height="115.000000pt" viewBox="0 0 208.000000 115.000000"
 preserveAspectRatio="xMidYMid meet">
<metadata>
Created by potrace 1.16, written by Peter Selinger 2001-2019
</metadata>
<g transform="translate(0.000000,115.000000) scale(0.100000,-0.100000)"
fill="#000000" stroke="none">
<path d="M1865 1046 c-39 -25 -112 -71 -164 -103 -51 -32 -104 -65 -117 -73
-12 -8 -56 -35 -96 -59 -40 -24 -75 -47 -78 -50 -3 -3 -14 -11 -25 -18 -123
-73 -211 -127 -215 -132 -3 -3 -14 -11 -25 -18 -132 -79 -211 -128 -215 -133
-4 -5 -83 -54 -215 -133 -11 -7 -22 -15 -25 -18 -4 -5 -109 -70 -168 -104 -10
-5 -32 -20 -49 -33 -34 -24 -34 -24 -61 27 -15 28 -17 27 118 107 52 32 97 61
98 66 2 4 9 8 16 8 7 0 21 9 31 20 12 13 22 17 28 11 6 -6 18 1 33 19 31 37
30 39 -11 26 -19 -6 -35 -16 -35 -22 0 -6 -10 -16 -22 -22 -30 -15 -62 -35
-68 -43 -6 -7 -141 -89 -170 -104 -11 -5 -20 -13 -20 -17 0 -19 -19 -5 -44 32
l-26 39 -57 -35 c-32 -19 -67 -40 -77 -47 -11 -7 -31 -22 -45 -34 l-24 -22 42
-68 c23 -37 47 -76 55 -85 12 -17 66 -18 870 -18 l856 0 -2 537 c-2 352 -6
537 -13 540 -6 2 -42 -17 -80 -41z m85 -495 c0 -464 -2 -520 -16 -525 -9 -3
-330 -6 -715 -6 l-700 0 14 28 c35 68 24 122 -22 107 -29 -9 -44 -50 -37 -98
6 -36 5 -37 -23 -37 -24 0 -30 5 -33 28 -3 15 -8 35 -12 44 -6 13 1 22 26 37
18 11 38 23 44 28 12 9 20 14 144 89 52 32 97 60 100 63 3 3 14 11 25 18 130
78 211 128 215 133 3 3 46 31 95 60 50 30 96 60 103 67 7 7 19 13 27 13 7 0
15 4 17 8 2 5 35 28 73 51 98 59 108 65 119 74 11 9 74 48 311 194 61 37 135
84 165 105 30 20 61 37 68 37 9 1 12 -109 12 -518z m-1571 -322 c23 -39 41
-75 41 -80 0 -5 -19 -21 -42 -35 -24 -15 -63 -39 -87 -55 l-44 -29 -35 58
c-19 31 -41 65 -49 74 -14 16 -13 19 16 35 17 10 31 21 31 26 0 4 4 7 9 7 5 0
33 16 62 35 30 19 54 35 55 35 1 0 21 -32 43 -71z m145 -127 c-10 -59 -15 -73
-26 -66 -9 6 -5 50 8 97 10 32 25 6 18 -31z m-127 -69 c-6 -8 -33 -13 -69 -13
-53 0 -58 2 -44 15 8 8 17 15 20 15 3 0 22 11 42 25 l38 26 11 -28 c8 -19 9
-32 2 -40z"/>
<path d="M363 423 c-6 -27 -14 -56 -18 -65 -5 -14 -2 -18 13 -18 11 0 19 6 19
13 -2 26 16 97 24 97 5 0 9 5 9 10 0 6 -8 10 -19 10 -14 0 -21 -11 -28 -47z"/>
<path d="M420 465 c0 -2 9 -9 20 -15 16 -9 20 -8 20 5 0 8 -9 15 -20 15 -11 0
-20 -2 -20 -5z"/>
<path d="M410 415 c-9 -11 -10 -19 -3 -26 8 -8 13 -5 18 11 4 12 5 24 2 26 -2
2 -10 -3 -17 -11z"/>
</g>
</svg>
