<?xml version="1.0" standalone="no"?>
<!DOCTYPE svg PUBLIC "-//W3C//DTD SVG 20010904//EN"
 "http://www.w3.org/TR/2001/REC-SVG-20010904/DTD/svg10.dtd">
<svg version="1.0" xmlns="http://www.w3.org/2000/svg"
 width="211.000000pt" height="294.000000pt" viewBox="0 0 211.000000 294.000000"
 preserveAspectRatio="xMidYMid meet">
<metadata>
Created by potrace 1.16, written by Peter Selinger 2001-2019
</metadata>
<g transform="translate(0.000000,294.000000) scale(0.100000,-0.100000)"
fill="#000000" stroke="none">
<path d="M900 2643 c0 -87 0 -88 -30 -105 -40 -23 -40 -60 0 -90 l30 -22 0
-1088 0 -1088 60 0 60 0 0 1088 0 1088 30 22 c40 30 40 67 0 90 -30 17 -30 18
-30 105 l0 87 -60 0 -60 0 0 -87z m110 -63 l0 -130 -45 0 -45 0 0 130 0 130
45 0 45 0 0 -130z m-110 -92 l0 -42 -22 21 c-21 22 -21 23 -3 43 10 11 20 20
22 20 1 0 3 -19 3 -42z m154 16 c6 -17 -9 -44 -25 -44 -5 0 -9 14 -9 30 0 33
23 42 34 14z m-44 -1156 l0 -1078 -45 0 -45 0 0 1078 0 1077 45 0 45 1 0
-1078z"/>
<path d="M170 2698 c0 -8 9 -23 20 -33 l20 -18 -22 -24 c-12 -12 -19 -25 -16
-28 2 -3 15 6 28 20 l23 24 19 -24 c11 -14 24 -22 30 -19 5 4 0 16 -13 30
l-22 24 23 25 c13 14 19 25 13 25 -5 0 -18 -9 -28 -20 -18 -20 -18 -20 -47 7
-20 19 -28 22 -28 11z"/>
<path d="M672 2673 c25 -27 25 -28 7 -47 -28 -29 -23 -43 6 -16 l25 23 25 -23
c21 -19 25 -21 25 -7 0 9 -9 22 -20 29 -19 12 -19 13 7 40 21 22 23 28 10 28
-9 0 -23 -10 -31 -22 l-16 -22 -16 22 c-8 12 -22 22 -31 22 -13 0 -11 -6 9
-27z"/>
<path d="M1160 2675 c22 -23 22 -26 7 -43 -28 -30 -20 -49 8 -22 l25 23 25
-23 c14 -13 25 -19 25 -13 0 5 -9 18 -20 28 l-20 18 22 24 c28 30 15 43 -16
14 l-24 -23 -11 21 c-7 12 -19 21 -28 21 -13 0 -12 -5 7 -25z"/>
<path d="M1650 2675 l23 -25 -22 -24 c-12 -13 -19 -26 -14 -29 5 -3 18 5 28
19 l18 25 29 -28 c33 -31 38 -20 6 14 l-21 23 23 25 c13 14 19 25 13 25 -5 0
-18 -9 -28 -20 l-18 -20 -22 20 c-31 29 -43 25 -15 -5z"/>
<path d="M1130 2450 c-56 -60 -43 -130 24 -130 59 0 112 83 87 136 -16 37 -74
34 -111 -6z m89 6 c15 -18 -3 -88 -30 -112 -25 -23 -63 -15 -67 15 -11 72 60
142 97 97z"/>
<path d="M170 2233 c0 -5 9 -18 20 -28 l20 -18 -22 -24 c-12 -12 -19 -26 -15
-29 4 -4 15 4 26 17 l19 24 26 -24 c14 -14 28 -22 31 -19 3 2 -4 13 -15 23
-11 10 -20 23 -20 30 0 7 9 20 20 30 11 10 18 21 15 23 -3 3 -16 -5 -30 -18
l-25 -23 -25 23 c-14 13 -25 19 -25 13z"/>
<path d="M668 2217 c27 -29 27 -39 2 -62 -11 -10 -18 -21 -15 -23 3 -3 16 5
30 18 l25 23 25 -23 c14 -13 25 -19 25 -13 0 6 -7 16 -15 23 -20 17 -19 33 5
55 11 10 18 21 15 23 -3 3 -16 -5 -30 -18 l-25 -23 -23 21 c-31 29 -46 28 -19
-1z"/>
<path d="M1163 2212 c27 -29 27 -29 7 -47 -11 -10 -20 -23 -20 -28 0 -6 12 0
26 14 l26 24 19 -24 c11 -13 22 -21 26 -17 4 3 -3 16 -15 29 l-22 23 22 22
c12 12 18 25 14 29 -4 4 -16 -3 -26 -17 l-19 -25 -23 23 c-35 32 -47 27 -15
-6z"/>
<path d="M1630 2233 c0 -4 10 -18 23 -31 l22 -24 -24 -19 c-13 -11 -21 -22
-17 -26 3 -4 17 4 31 17 l24 23 20 -24 c11 -13 23 -21 27 -16 4 4 -2 17 -14
30 l-22 23 22 22 c12 12 18 25 14 29 -4 4 -16 -3 -26 -17 l-19 -25 -23 23
c-24 22 -38 28 -38 15z"/>
<path d="M170 1767 c0 -9 10 -23 23 -32 l22 -16 -24 -20 c-13 -11 -21 -22 -17
-26 3 -4 16 3 29 15 22 21 23 21 35 2 7 -11 20 -20 29 -20 14 0 12 4 -7 25
l-23 25 23 25 c16 17 19 25 9 25 -8 0 -20 -10 -27 -21 l-14 -21 -29 28 c-22
21 -29 24 -29 11z"/>
<path d="M730 1755 c-23 -24 -23 -25 -37 -5 -8 11 -22 20 -31 20 -12 0 -8 -8
16 -32 l32 -33 31 31 c17 18 27 34 22 37 -6 4 -20 -5 -33 -18z"/>
<path d="M1220 1755 c-23 -24 -23 -24 -37 -5 -8 11 -21 20 -30 20 -13 0 -12
-5 7 -25 l23 -25 -23 -25 c-19 -20 -20 -25 -7 -25 9 0 22 9 30 20 l14 20 18
-20 c10 -11 23 -20 28 -20 6 0 0 11 -13 25 l-23 25 23 25 c13 14 21 27 18 30
-2 3 -15 -6 -28 -20z"/>
<path d="M1650 1745 l23 -25 -23 -25 c-13 -14 -19 -25 -13 -25 5 0 18 9 28 20
l18 20 22 -20 c31 -29 43 -25 15 5 l-23 25 23 25 c13 14 19 25 13 25 -5 0 -18
-9 -28 -20 l-18 -20 -22 20 c-31 29 -43 25 -15 -5z"/>
<path d="M665 1690 c-14 -16 -15 -20 -4 -20 16 0 39 19 39 32 0 14 -16 9 -35
-12z"/>
<path d="M720 1702 c0 -13 23 -32 39 -32 11 0 10 4 -4 20 -19 21 -35 26 -35
12z"/>
<path d="M170 1302 c0 -5 9 -17 20 -27 l20 -18 -20 -22 c-29 -31 -25 -43 5
-15 l25 23 25 -23 c14 -13 27 -21 30 -18 3 2 -4 13 -15 23 -11 10 -20 23 -20
30 0 7 9 20 20 30 11 10 18 21 15 23 -3 3 -16 -5 -30 -18 l-25 -24 -16 22
c-15 22 -34 29 -34 14z"/>
<path d="M668 1287 c26 -27 27 -40 7 -57 -8 -7 -15 -17 -15 -23 0 -6 11 0 25
13 l25 23 25 -23 c14 -13 25 -19 25 -13 0 6 -7 16 -15 23 -20 17 -19 33 5 55
11 10 18 21 15 23 -3 3 -16 -5 -30 -18 l-25 -23 -23 21 c-31 29 -46 28 -19 -1z"/>
<path d="M1163 1282 c27 -29 27 -29 7 -47 -11 -10 -20 -23 -20 -28 0 -6 11 0
25 13 l25 23 25 -23 c14 -13 25 -19 25 -13 0 5 -9 18 -20 28 l-20 18 22 24
c12 12 18 26 14 30 -4 5 -16 -3 -27 -16 l-20 -24 -22 22 c-34 31 -45 26 -14
-7z"/>
<path d="M1650 1285 l23 -25 -23 -25 c-31 -33 -17 -45 16 -14 l25 24 19 -25
c10 -14 22 -21 26 -17 4 4 -2 17 -14 30 l-22 23 22 22 c12 12 18 25 14 29 -4
5 -16 -3 -27 -16 l-20 -24 -22 22 c-32 29 -46 27 -17 -4z"/>
<path d="M170 845 c0 -5 10 -19 21 -32 l22 -22 -24 -20 c-13 -11 -21 -23 -16
-27 4 -4 18 2 30 14 l24 22 18 -20 c10 -11 23 -20 28 -20 6 0 0 11 -13 25
l-23 25 22 24 c13 14 18 26 12 30 -5 4 -18 -5 -28 -18 l-18 -24 -27 26 c-16
14 -28 22 -28 17z"/>
<path d="M657 843 c-4 -3 3 -17 15 -30 l21 -23 -23 -25 c-19 -20 -20 -25 -7
-25 9 0 23 10 31 22 l16 22 16 -22 c8 -12 22 -22 31 -22 13 0 12 5 -7 25 l-23
25 21 23 c29 31 16 44 -15 15 l-23 -21 -23 21 c-13 12 -27 19 -30 15z"/>
<path d="M1147 843 c-4 -3 3 -17 15 -30 l21 -23 -23 -25 c-19 -20 -20 -25 -7
-25 9 0 21 9 28 21 l11 21 24 -23 c13 -12 27 -19 31 -15 5 4 -3 16 -16 27
l-24 20 22 22 c29 32 27 46 -4 17 l-25 -23 -23 21 c-13 12 -27 19 -30 15z"/>
<path d="M1630 843 c0 -4 10 -17 22 -30 l21 -23 -23 -25 c-13 -14 -19 -25 -13
-25 5 0 18 9 28 20 l18 20 22 -20 c31 -29 43 -25 15 5 l-23 25 23 25 c13 14
21 27 18 30 -2 3 -15 -6 -28 -20 l-23 -24 -19 24 c-19 24 -38 33 -38 18z"/>
<path d="M170 372 c0 -5 9 -17 20 -27 l20 -18 -20 -22 c-29 -31 -25 -43 5 -15
l25 23 25 -23 c14 -13 28 -20 32 -16 4 4 3 10 -2 14 -6 4 -16 15 -24 25 -12
15 -11 21 9 42 13 14 19 25 13 25 -5 0 -18 -9 -28 -20 l-18 -20 -22 20 c-23
21 -35 25 -35 12z"/>
<path d="M668 357 c26 -27 27 -40 7 -57 -8 -7 -15 -17 -15 -23 0 -6 11 0 25
13 l25 23 25 -23 c14 -13 25 -19 25 -13 0 6 -7 16 -15 23 -20 17 -19 33 5 55
11 10 18 21 15 23 -3 3 -16 -5 -30 -18 l-25 -23 -23 21 c-31 29 -46 28 -19 -1z"/>
<path d="M1158 357 c26 -27 27 -40 7 -57 -8 -7 -15 -17 -15 -23 0 -6 11 0 25
13 l25 23 25 -23 c14 -13 25 -19 25 -13 0 5 -9 18 -20 28 l-20 18 22 24 c12
12 18 26 14 30 -4 5 -16 -3 -27 -16 l-20 -24 -22 22 c-31 28 -46 27 -19 -2z"/>
<path d="M1650 355 l23 -25 -23 -25 c-13 -14 -20 -28 -17 -32 4 -3 18 4 32 17
l25 23 25 -23 c31 -29 33 -15 4 17 l-22 22 24 20 c13 11 21 23 16 27 -4 4 -18
-2 -30 -14 l-24 -22 -18 20 c-10 11 -23 20 -28 20 -6 0 0 -11 13 -25z"/>
</g>
</svg>
